<svg width="60" height="60" viewBox="0 0 60 60" fill="none" xmlns="http://www.w3.org/2000/svg">
<circle cx="30" cy="30" r="30" fill="#64B161"/>
<path d="M12.3889 48.5909C12.1752 48.5909 11.9672 48.5064 11.813 48.3504C11.6097 48.1448 11.5313 47.8463 11.6077 47.5672L14.0823 38.5308C12.5417 35.7449 11.7294 32.5934 11.7306 29.3943C11.7349 18.9903 20.2015 10.5264 30.6045 10.5264C35.6504 10.5284 40.3916 12.4939 43.9552 16.0601C47.5183 19.6266 49.4797 24.3676 49.4782 29.4094C49.4736 39.8136 41.007 48.2781 30.6045 48.2781C30.6045 48.2781 30.5967 48.2781 30.5964 48.2781C27.5579 48.2769 24.5454 47.5364 21.8632 46.1337L12.5942 48.5645C12.5263 48.5822 12.4572 48.5909 12.3889 48.5909V48.5909Z" fill="#E5E5E5"/>
<path d="M12.3887 47.7807L14.9512 38.4228C13.3705 35.684 12.5391 32.5772 12.5403 29.3943C12.5443 19.437 20.6473 11.3361 30.6043 11.3361C35.4361 11.3381 39.9714 13.2188 43.382 16.6323C46.7923 20.0457 48.6698 24.5831 48.668 29.4088C48.6637 39.3658 40.5595 47.4679 30.6043 47.4679C30.6037 47.4679 30.6046 47.4679 30.6043 47.4679H30.5965C27.5733 47.4667 24.603 46.7085 21.9646 45.2695L12.3887 47.7807ZM22.4081 42.0004L22.9567 42.3253C25.2613 43.6932 27.9038 44.4166 30.5985 44.418H30.6043C38.8792 44.418 45.6144 37.684 45.6179 29.4076C45.6193 25.3968 44.0592 21.6253 41.2246 18.7882C38.3896 15.9512 34.6204 14.388 30.6098 14.3862C22.3282 14.3862 15.5933 21.1194 15.5901 29.3954C15.589 32.2316 16.3824 34.9934 17.8855 37.3834L18.2427 37.9515L16.7256 43.4902L22.4081 42.0004Z" fill="white"/>
<path d="M13.017 47.1502L15.491 38.1159C13.9646 35.472 13.1622 32.4724 13.163 29.4001C13.1668 19.7876 20.9896 11.9672 30.6012 11.9672C35.2664 11.9692 39.6449 13.7848 42.9367 17.0801C46.2293 20.3754 48.0415 24.7556 48.0397 29.4138C48.0357 39.0266 40.2126 46.8479 30.6021 46.8479C30.6012 46.8479 30.6024 46.8479 30.6021 46.8479H30.5943C27.676 46.8468 24.8082 46.1143 22.2613 44.7262L13.017 47.1502Z" fill="#64B161"/>
<path d="M12.3887 47.7807L14.9512 38.4228C13.3705 35.684 12.5391 32.5772 12.5403 29.3943C12.5443 19.437 20.6473 11.3361 30.6043 11.3361C35.4361 11.3381 39.9714 13.2188 43.382 16.6323C46.7923 20.0457 48.6698 24.5831 48.668 29.4088C48.6637 39.3658 40.5595 47.4679 30.6043 47.4679C30.6037 47.4679 30.6046 47.4679 30.6043 47.4679H30.5965C27.5733 47.4667 24.603 46.7085 21.9646 45.2695L12.3887 47.7807ZM22.4081 42.0004L22.9567 42.3253C25.2613 43.6932 27.9038 44.4166 30.5985 44.418H30.6043C38.8792 44.418 45.6144 37.684 45.6179 29.4076C45.6193 25.3968 44.0592 21.6253 41.2246 18.7882C38.3896 15.9512 34.6204 14.388 30.6098 14.3862C22.3282 14.3862 15.5933 21.1194 15.5901 29.3954C15.589 32.2316 16.3824 34.9934 17.8855 37.3834L18.2427 37.9515L16.7256 43.4902L22.4081 42.0004Z" fill="white"/>
<path fill-rule="evenodd" clip-rule="evenodd" d="M26.0898 21.8451C25.7518 21.0935 25.3957 21.0784 25.0739 21.0653C24.8108 21.054 24.5097 21.0546 24.2091 21.0546C23.9082 21.0546 23.4192 21.1678 23.0057 21.6194C22.5918 22.071 21.4255 23.1629 21.4255 25.3837C21.4255 27.6047 23.0431 29.7506 23.2688 30.052C23.4944 30.3532 26.3912 35.0561 30.9788 36.8653C34.7916 38.3691 35.5673 38.0699 36.395 37.9947C37.2226 37.9195 39.0653 36.9028 39.4414 35.8489C39.8177 34.795 39.8177 33.8918 39.7048 33.7028C39.5918 33.5149 39.2909 33.4019 38.8396 33.1762C38.3883 32.9506 36.1693 31.8584 35.7555 31.7079C35.3417 31.5572 35.0408 31.4823 34.7399 31.9342C34.4388 32.3855 33.5745 33.4019 33.3111 33.7028C33.0477 34.0045 32.7843 34.0422 32.333 33.8163C31.8817 33.5901 30.4279 33.1138 28.7035 31.5761C27.3618 30.3799 26.4557 28.9023 26.1923 28.4504C25.9292 27.9991 26.188 27.7761 26.3907 27.5295C26.7557 27.0855 27.3682 26.2872 27.5186 25.9863C27.669 25.6849 27.5938 25.4215 27.4811 25.1955C27.3682 24.9699 26.4909 22.7378 26.0898 21.8451V21.8451Z" fill="white"/>
</svg>
